<svg width="30" height="30" viewBox="0 0 30 30" fill="none" xmlns="http://www.w3.org/2000/svg">
<path fill-rule="evenodd" clip-rule="evenodd" d="M14.9992 0C6.71577 0 0 6.88622 0 15.3806C0 22.1758 4.29692 27.9404 10.2581 29.9729C11.0088 30.1153 11.2819 29.6417 11.2819 29.2327C11.2819 28.8684 11.2688 27.9018 11.2623 26.617C7.08962 27.5473 6.20923 24.5549 6.20923 24.5549C5.52692 22.7783 4.54346 22.3059 4.54346 22.3059C3.18154 21.3523 4.64692 21.3709 4.64692 21.3709C6.15231 21.4801 6.94462 22.9554 6.94462 22.9554C8.28231 25.3058 10.4558 24.6255 11.31 24.2343C11.4458 23.2385 11.8342 22.5622 12.2623 22.1769C8.93192 21.7889 5.43038 20.4694 5.43038 14.5761C5.43038 12.8966 6.01462 11.5234 6.97385 10.448C6.82038 10.0608 6.30462 8.49717 7.12115 6.37869C7.12115 6.37869 8.38039 5.96541 11.2465 7.95651C12.4423 7.61381 13.7258 7.44266 15.0015 7.43753C16.2754 7.44306 17.5592 7.61381 18.7565 7.95651C21.6208 5.96541 22.8781 6.37869 22.8781 6.37869C23.6965 8.49717 23.1812 10.0608 23.0273 10.448C23.9888 11.5234 24.5688 12.8966 24.5688 14.5761C24.5688 20.4832 21.0623 21.7846 17.7208 22.1639C18.2585 22.6391 18.7385 23.5797 18.7385 25.0147C18.7385 27.0697 18.7204 28.728 18.7204 29.2323C18.7204 29.6444 18.99 30.1236 19.7515 29.971C25.7062 27.9341 30 22.1738 30 15.3806C30 6.88622 23.2842 0 14.9992 0Z" fill="white"/>
</svg>
