<svg width="30" height="30" viewBox="0 0 30 30" fill="none" xmlns="http://www.w3.org/2000/svg">
<path d="M6.81636 9.74805H0.371094V29.9999H6.81636V9.74805Z" fill="white"/>
<path d="M27.9686 11.5979C26.6147 10.0515 24.824 9.2782 22.5976 9.2782C21.7773 9.2782 21.0317 9.38378 20.361 9.59508C19.6905 9.80623 19.1242 10.1025 18.6618 10.484C18.1997 10.8655 17.8317 11.2197 17.5585 11.5465C17.2986 11.857 17.0446 12.2186 16.7966 12.6276V9.7479H10.3706L10.3903 10.729C10.4035 11.3831 10.41 13.3993 10.41 16.7779C10.41 20.1568 10.397 24.564 10.3709 30H16.7966V18.6987C16.7966 18.004 16.8679 17.4524 17.0114 17.0433C17.285 16.3481 17.698 15.7661 18.2517 15.2963C18.8054 14.8259 19.492 14.5909 20.3125 14.5909C21.432 14.5909 22.2559 14.9962 22.7833 15.8068C23.3105 16.6173 23.5742 17.738 23.5742 19.1685V29.9994H29.9999V18.3925C29.9995 15.4085 29.3229 13.1438 27.9686 11.5979Z" fill="white"/>
<path d="M3.63275 0C2.55215 0 1.67658 0.33062 1.00582 0.991217C0.335138 1.65196 0 2.48613 0 3.49453C0 4.48882 0.325492 5.32013 0.976545 5.98753C1.62739 6.655 2.48689 6.98891 3.55455 6.98891H3.59362C4.68748 6.98891 5.56976 6.65528 6.24024 5.98753C6.91072 5.32013 7.23943 4.48911 7.2265 3.49453C7.2135 2.4862 6.88124 1.65196 6.23039 0.991217C5.57961 0.330334 4.71341 0 3.63275 0Z" fill="white"/>
</svg>
